<svg aria-hidden="true" style="position: absolute; width: 0; height: 0; overflow: hidden;" version="1.1" xmlns="http://www.w3.org/2000/svg" xmlns:xlink="http://www.w3.org/1999/xlink">
<defs>
<symbol id="icon-3" viewBox="0 0 39 32">
<path fill="#f98aab" style="fill: var(--color1, #f98aab)" d="M5.307 11.205h5.962c0.406-0.024 0.727-0.359 0.727-0.769s-0.321-0.746-0.725-0.769l-0.002-0h-5.962c-0.406 0.024-0.727 0.359-0.727 0.769s0.321 0.746 0.725 0.769l0.002 0zM5.307 16.534h5.962c0.406-0.024 0.727-0.359 0.727-0.769s-0.321-0.746-0.725-0.769l-0.002-0h-5.962c-0.406 0.024-0.727 0.359-0.727 0.769s0.321 0.746 0.725 0.769l0.002 0zM12.699 29.428c-0.121-0.281-0.395-0.475-0.715-0.475-0.104 0-0.204 0.021-0.295 0.058l0.005-0.002c-0.282 0.12-0.476 0.395-0.476 0.715 0 0.106 0.021 0.207 0.060 0.299l-0.002-0.005c0.162 0.384 0.618 0.574 1.007 0.414 0.28-0.121 0.473-0.395 0.473-0.714 0-0.105-0.021-0.205-0.058-0.296l0.002 0.005z"></path>
<path fill="#f98aab" style="fill: var(--color1, #f98aab)" d="M39.178 17.524l-9.147-9.822 2.801-2.796c0.487-0.48 0.756-1.122 0.756-1.807 0-0.674-0.261-1.31-0.738-1.79-0.464-0.463-1.105-0.75-1.812-0.75-0.694 0-1.323 0.276-1.785 0.723l-0.007 0.007-3.84 3.83h-1.438v-2.954c-0.001-0.424-0.344-0.767-0.768-0.768h-4.076v-0.628c-0.024-0.406-0.359-0.727-0.769-0.727s-0.746 0.321-0.769 0.725l-0 0.002v0.628h-2.811v-0.628c-0.024-0.406-0.359-0.727-0.769-0.727s-0.746 0.321-0.769 0.725l-0 0.002v0.628h-2.809v-0.628c-0.024-0.406-0.359-0.727-0.769-0.727s-0.746 0.321-0.769 0.725l-0 0.002v0.628h-2.811v-0.628c-0.024-0.406-0.359-0.727-0.769-0.727s-0.746 0.321-0.769 0.725l-0 0.002v0.628h-3.769c0 0 0 0 0 0-0.425 0-0.769 0.344-0.77 0.768v27.555c0 0.426 0.345 0.77 0.77 0.77h7.852c0.406-0.024 0.727-0.359 0.727-0.769s-0.321-0.746-0.725-0.769l-0.002-0h-7.087v-26.018h3.003v0.699c0.033 0.398 0.364 0.709 0.768 0.709s0.735-0.311 0.768-0.706l0-0.003v-0.697h2.811v0.697c0.024 0.406 0.359 0.727 0.769 0.727s0.746-0.321 0.769-0.725l0-0.002v-0.697h2.809v0.697c0.024 0.406 0.359 0.727 0.769 0.727s0.746-0.321 0.769-0.725l0-0.002v-0.697h2.811v0.697c0.024 0.406 0.359 0.727 0.769 0.727s0.746-0.321 0.769-0.725l0-0.002v-0.697h3.303v2.191c-1.441 0.064-2.73 0.668-3.68 1.613l-5.661 5.661c-0.137 0.14-0.222 0.331-0.222 0.543 0 0.269 0.137 0.505 0.344 0.645l0.003 0.002c0.802 0.526 1.786 0.839 2.842 0.839 0.005 0 0.009 0 0.014-0h0.002l-0.881 0.881c-0.062 0.062-0.113 0.134-0.151 0.214l-0.002 0.005-2.466 3.707c-0.18 0.263-0.287 0.588-0.287 0.939 0 0.051 0.002 0.101 0.007 0.151l-0-0.006h-6.976c-0.406 0.024-0.727 0.359-0.727 0.769s0.321 0.746 0.725 0.769l0.002 0h8.665c0.352-0.004 0.677-0.114 0.946-0.299l-0.006 0.004 3.751-2.55c0.046-0.030 0.086-0.063 0.123-0.099l-0 0 1.74-1.738 1.898 1.895v9.881h-7.040c-0.406 0.024-0.727 0.359-0.727 0.769s0.321 0.746 0.725 0.769l0.002 0h7.81c0.423 0 0.768-0.345 0.768-0.77v-9.147c0.972 0.807 2.186 1.248 3.466 1.248h3.070c0.64 0 1.255 0.263 1.694 0.721l5.858 6.228c0.468 0.495 1.332 0.155 1.332-0.527v-10.196c0 0 0-0 0-0 0-0.203-0.079-0.387-0.207-0.525l0 0zM19.835 7.825c0.722-0.72 1.718-1.165 2.818-1.167h1.206l-4.793 4.783c-0.443 0.426-0.864 0.842-1.433 1.108-0.837 0.386-1.812 0.448-2.693 0.172l4.894-4.894zM30.324 2.385c0.184-0.178 0.435-0.288 0.711-0.288 0.282 0 0.537 0.114 0.721 0.298l-0-0c0.181 0.181 0.294 0.43 0.294 0.707 0 0.281-0.116 0.535-0.303 0.716l-0 0-8.042 8.017-0.389-0.386c-0.355-0.354-0.798-0.619-1.293-0.76l-0.021-0.005 8.325-8.3zM14.050 20.29c-0.066 0.044-0.128 0.039-0.185-0.017-0.086-0.084-0.042-0.148-0.020-0.185l2.011-3.020 1.186 1.186-2.993 2.036zM18.247 17.28l-1.428-1.428 1.467-1.462c0.138 0.5 0.411 0.958 0.778 1.324l0.377 0.374-1.194 1.191zM37.846 26.302l-4.534-4.82c-0.71-0.739-1.707-1.199-2.811-1.201h-3.070c-1.039 0-2.018-0.404-2.752-1.137l-4.529-4.519c-0.652-0.492-0.507-1.578 0-2.092 0.27-0.259 0.637-0.419 1.041-0.419s0.771 0.16 1.042 0.419l-0-0 3.68 3.682c0.295 0.295 0.79 0.295 1.088 0 0.139-0.139 0.225-0.332 0.225-0.544s-0.086-0.405-0.225-0.544l-2.206-2.206 4.145-4.135 8.906 9.563v7.953z"></path>
</symbol>
<symbol id="icon-1" viewBox="0 0 21 32">
<path fill="#f98aab" style="fill: var(--color1, #f98aab)" d="M12.017 7.765c1.64-0.681 2.522-2.266 2.123-3.817s-1.973-2.654-3.787-2.654-3.388 1.103-3.787 2.654c-0.399 1.551 0.484 3.136 2.123 3.817h3.328z"></path>
<path fill="#f98aab" style="fill: var(--color1, #f98aab)" d="M5.952 9.060c-0.15-0.001-0.284-0.068-0.376-0.173l-0-0.001c-2.15-2.406-2.266-6.129-0.269-8.68 0.093-0.127 0.241-0.208 0.408-0.208 0.029 0 0.057 0.002 0.084 0.007l-0.003-0c0.19 0.037 0.342 0.171 0.402 0.348l0.001 0.004c0.064 0.188 0.028 0.395-0.094 0.546-1.666 2.125-1.568 5.227 0.226 7.232 0.087 0.1 0.14 0.231 0.14 0.375 0 0.078-0.016 0.152-0.044 0.22l0.001-0.004c-0.076 0.193-0.26 0.328-0.476 0.331h-0zM15.561 6.472c-0.005 0-0.011 0-0.017 0-0.189 0-0.358-0.086-0.47-0.221l-0.001-0.001c-0.052-0.065-0.083-0.148-0.083-0.239 0-0.079 0.024-0.153 0.065-0.214l-0.001 0.001c1.039-1.638 0.772-3.616-0.68-5.033-0.086-0.073-0.14-0.181-0.14-0.302 0-0.057 0.012-0.111 0.034-0.16l-0.001 0.003c0.087-0.166 0.251-0.282 0.444-0.299l0.002-0c0.029-0.005 0.062-0.007 0.095-0.007 0.172 0 0.328 0.067 0.443 0.177l-0-0c1.741 1.702 2.063 4.079 0.815 6.044-0.11 0.154-0.288 0.253-0.488 0.253-0.007 0-0.014-0-0.021-0l0.001 0z"></path>
<path fill="#f98aab" style="fill: var(--color1, #f98aab)" d="M20.706 14.805v8.346s0 2.842-1.73 4.486c-0.185 0.186-0.3 0.443-0.3 0.726 0 0.008 0 0.016 0 0.024l-0-0.001v1.619c0 0.582-0.454 1.052-1.015 1.054h-8.113c-0.564-0.013-1.017-0.473-1.017-1.039 0-0.005 0-0.011 0-0.016v0.001-0.196c0.002-0.845-0.326-1.656-0.905-2.246-0.979-0.992-2.49-2.705-3.151-4.412-1.013-2.635-3.042-6.328-4.056-7.383s0-2.108 1.015-2.108 3.042 2.108 4.056 3.689c0.324 0.51 0.7 0.979 1.126 1.399 0.254 0.245 0.608 0.339 0.941 0.247 0.339-0.096 0.603-0.353 0.706-0.682l0.002-0.007c0.194-0.651 0.282-1.329 0.269-2.010v-12.126c-0-0.006-0-0.013-0-0.019 0-0.848 0.676-1.539 1.519-1.562l0.002-0c0.84 0 1.521 0.708 1.521 1.581v6.327c-0-0.006-0-0.013-0-0.019 0-0.849 0.677-1.54 1.521-1.562l0.002-0c0.84 0 1.521 0.708 1.521 1.581v1.581c0-0.418 0.16-0.821 0.446-1.116 0.154-0.163 0.344-0.289 0.559-0.366l0.010-0.003c0.147-0.060 0.318-0.094 0.497-0.094 0.004 0 0.008 0 0.012 0h-0.001c0.838 0 1.519 0.708 1.519 1.581v2.635c0-0.42 0.162-0.821 0.446-1.118 0.154-0.163 0.344-0.289 0.558-0.366l0.010-0.003c0.15-0.059 0.324-0.093 0.505-0.093 0.040 0 0.080 0.002 0.119 0.005l-0.005-0c0.815 0.090 1.427 0.813 1.41 1.666z"></path>
<path fill="#f8edf0" style="fill: var(--color2, #f8edf0)" d="M10.381 2.622c-0.002 0-0.005-0-0.008-0-0.185 0-0.361 0.035-0.524 0.098l0.010-0.003c-0.613 0.216-1.045 0.791-1.045 1.466 0 0.002 0 0.004 0 0.006v-0 12.015c0.015 0.674-0.079 1.346-0.279 1.992-0.085 0.246-0.251 0.445-0.466 0.571l-0.005 0.003c0.151 0.090 0.333 0.144 0.527 0.144 0.459 0 0.848-0.298 0.986-0.71l0.002-0.007c0.2-0.646 0.294-1.318 0.279-1.992v-12.015c0-0.002 0-0.004 0-0.006 0-0.675 0.432-1.25 1.034-1.463l0.011-0.003c-0.153-0.060-0.33-0.094-0.515-0.094-0.003 0-0.006 0-0.009 0h0zM12.994 8.984c-0.613 0.216-1.045 0.791-1.045 1.466 0 0.002 0 0.004 0 0.006v-0 4.702c0.017 0.275 0.244 0.492 0.522 0.492s0.505-0.217 0.522-0.49l0-0.002v-4.702c0-0.002 0-0.004 0-0.006 0-0.675 0.432-1.25 1.034-1.463l0.011-0.003c-0.155-0.060-0.335-0.094-0.522-0.094s-0.367 0.034-0.533 0.097l0.010-0.003zM16.134 10.552c-0.614 0.22-1.045 0.797-1.045 1.474v0 3.132c0 0.288 0.234 0.522 0.522 0.522s0.522-0.234 0.522-0.522v0-3.134c0-0.002 0-0.004 0-0.006 0-0.675 0.432-1.25 1.034-1.463l0.011-0.003c-0.155-0.060-0.335-0.094-0.522-0.094s-0.367 0.034-0.533 0.097l0.010-0.003zM19.789 13.069c-0.003-0-0.006-0-0.010-0-0.185 0-0.361 0.035-0.523 0.098l0.010-0.003c-0.614 0.22-1.045 0.797-1.045 1.474v0 1.043c0 0.288 0.234 0.522 0.522 0.522s0.522-0.234 0.522-0.522v0-1.045c0-0.002 0-0.004 0-0.006 0-0.675 0.432-1.25 1.034-1.463l0.011-0.003c-0.152-0.060-0.329-0.094-0.514-0.094-0.003 0-0.006 0-0.008 0h0zM18.765 18.118c-0.358 0-0.648 0.216-0.648 0.486v2.912c0 0.267 0.29 0.486 0.648 0.486s0.648-0.218 0.648-0.486v-2.912c0-0.269-0.29-0.486-0.648-0.486zM18.993 23.294c-0.232 0.006-0.422 0.275-0.44 0.623-0.026 0.322-0.135 0.613-0.307 0.858l0.004-0.006c-0.084 0.132-0.134 0.294-0.134 0.466 0 0.057 0.005 0.113 0.016 0.168l-0.001-0.006c0.040 0.226 0.158 0.403 0.307 0.463 0.151 0.058 0.311-0.009 0.418-0.177 0.328-0.456 0.527-1.082 0.557-1.752 0-0.35-0.188-0.634-0.42-0.638zM11.215 28.471h-0.429c-0.237 0-0.431 0.29-0.431 0.648s0.194 0.648 0.433 0.648h0.429c0.239 0 0.433-0.292 0.433-0.648 0-0.358-0.194-0.648-0.433-0.648zM16.392 28.471h-3.019c-0.237 0-0.431 0.29-0.431 0.648s0.194 0.648 0.433 0.648h3.017c0.239 0 0.433-0.292 0.433-0.648 0-0.358-0.194-0.648-0.433-0.648z"></path>
</symbol>
<symbol id="icon-2" viewBox="0 0 32 32">
<path fill="#f9c2d2" style="fill: var(--color3, #f9c2d2)" d="M26.377 27.25h-17.817c-1.55 0-2.811-1.262-2.811-2.811 0-1.554 1.262-2.814 2.811-2.814h2.811l-1.689 1.874h-1.12c-0.518 0-0.937 0.42-0.937 0.937s0.42 0.937 0.937 0.937v0h17.81v1.874z"></path>
<path fill="#f98aab" style="fill: var(--color1, #f98aab)" d="M17.938 25.376h8.437v1.874h-8.437v-1.874z"></path>
<path fill="#f98aab" style="fill: var(--color1, #f98aab)" opacity="0.5" d="M6.773 10.377l-0.837-3.753h-5.936v-1.874h7.44l1.623 7.273-2.29-1.646z"></path>
<path fill="#f9c2d2" style="fill: var(--color3, #f9c2d2)" d="M21.966 10.697l-0.281-0.32h-14.907l2.91 13.122h16.48l3.303-12.786c-0.64 0.16-4.439 3.506-7.504-0.016zM26.683 14.007l-0.519 1.993h-4.393l0.238-2.859c1.376 0.837 3.063 1.17 4.674 0.866zM15.991 16l-0.313-3.749h4.526l-0.313 3.749h-3.902zM19.735 17.874l-0.313 3.749h-2.965l-0.313-3.749h3.589zM13.797 12.251l0.313 3.749h-4.167l-0.83-3.749h4.681zM10.361 17.874h3.904l0.313 3.749h-3.385l-0.832-3.749zM21.303 21.623l0.311-3.749h4.069l-0.969 3.749h-3.41z"></path>
<path fill="#f98aab" style="fill: var(--color1, #f98aab)" d="M21.963 10.697l-0.281-0.32h-3.744v1.874h2.263l-0.315 3.749h-1.95v1.874h1.794l-0.313 3.749h-1.481v1.877h8.226l3.303-12.786c-0.64 0.16-4.439 3.506-7.504-0.016zM24.711 21.623h-3.408l0.311-3.749h4.069l-0.969 3.749zM26.679 14.007l-0.514 1.993h-4.395l0.238-2.859c1.374 0.837 3.063 1.17 4.672 0.866z"></path>
<path fill="#665151" style="fill: var(--color4, #665151)" d="M12.313 31.001c-1.485-0.087-2.656-1.313-2.656-2.811s1.171-2.724 2.648-2.811l0.008-0c1.55-0.002 2.811 1.257 2.811 2.809 0 1.55-1.262 2.811-2.811 2.811z"></path>
<path fill="#4d3535" style="fill: var(--color5, #4d3535)" d="M21.687 31.001c-1.485-0.087-2.656-1.313-2.656-2.811s1.171-2.724 2.648-2.811l0.008-0c1.552-0.002 2.811 1.257 2.811 2.809 0 1.55-1.259 2.811-2.811 2.811z"></path>
<path fill="#f9c2d2" style="fill: var(--color3, #f9c2d2)" d="M25.438 14.126c-3.624-0.001-6.561-2.939-6.562-6.562v-0c0.004-3.622 2.938-6.558 6.559-6.565h0.001c3.625 0.004 6.562 2.942 6.565 6.567v0c0 0.001 0 0.003 0 0.005 0 3.62-2.935 6.555-6.555 6.555-0.002 0-0.005 0-0.007 0h0z"></path>
<path fill="#fff7e6" style="fill: var(--color6, #fff7e6)" d="M12.313 29.125c0.518 0 0.937-0.42 0.937-0.937s-0.42-0.937-0.937-0.937v0c-0.518 0-0.937 0.42-0.937 0.937s0.42 0.937 0.937 0.937v0z"></path>
<path fill="#ffeacc" style="fill: var(--color7, #ffeacc)" d="M21.687 29.125c0.518 0 0.937-0.42 0.937-0.937s-0.42-0.937-0.937-0.937v0c-0.518 0-0.937 0.42-0.937 0.937s0.42 0.937 0.937 0.937v0z"></path>
<path fill="#f98aab" style="fill: var(--color1, #f98aab)" d="M32 7.563c-0.004-3.623-2.939-6.559-6.562-6.565h-0v13.127c0.002 0 0.004 0 0.007 0 3.62 0 6.555-2.935 6.555-6.555 0-0.002 0-0.005 0-0.007v0z"></path>
<path fill="#fff" style="fill: var(--color8, #fff)" d="M28.251 6.624h-1.874v-1.874h-1.877v1.874h-1.874v1.874h1.874v1.877h1.874v-1.874h1.874v-1.874z"></path>
<path fill="#fff" style="fill: var(--color8, #fff)" d="M25.438 4.75v5.627h0.937v-1.874h1.874v-1.874h-1.874v-1.874h-0.937z"></path>
</symbol>
</defs>
</svg>
